<?xml version="1.0" encoding="UTF-8" standalone="no" ?>
<!DOCTYPE svg PUBLIC "-//W3C//DTD SVG 1.1//EN" "http://www.w3.org/Graphics/SVG/1.1/DTD/svg11.dtd">
<svg xmlns="http://www.w3.org/2000/svg" xmlns:xlink="http://www.w3.org/1999/xlink" version="1.1" width="500" height="700" viewBox="0 0 500 700" xml:space="preserve">
<desc>Created with Fabric.js 4.6.0</desc>
<defs>
</defs>
<g transform="matrix(1 0 0 1 0.59 0.59)" id="vOnOqorcpodEwhkVnu1OR"  >
<path style="stroke: rgb(0,0,0); stroke-width: 1; stroke-dasharray: none; stroke-linecap: butt; stroke-dashoffset: 0; stroke-linejoin: miter; stroke-miterlimit: 4; fill: rgb(255,255,255); fill-opacity: 0; fill-rule: nonzero; opacity: 1;" vector-effect="non-scaling-stroke"  transform=" translate(0, 0)" d="M 0 0" stroke-linecap="round" />
</g>
<g transform="matrix(1 0 0 1 499.36 699.36)" id="3A0t3q0HDy_Mht5x8L8r-"  >
<path style="stroke: rgb(0,0,0); stroke-width: 1; stroke-dasharray: none; stroke-linecap: butt; stroke-dashoffset: 0; stroke-linejoin: miter; stroke-miterlimit: 4; fill: rgb(255,255,255); fill-opacity: 0; fill-rule: nonzero; opacity: 1;" vector-effect="non-scaling-stroke"  transform=" translate(0, 0)" d="M 0 0" stroke-linecap="round" />
</g>
<g transform="matrix(1 0 0 1 249.97 349.97)" id="s_34moJwvjPOFu40COTy0"  >
<path style="stroke: rgb(0,0,0); stroke-width: 3; stroke-dasharray: none; stroke-linecap: butt; stroke-dashoffset: 0; stroke-linejoin: miter; stroke-miterlimit: 4; fill: rgb(255,255,255); fill-opacity: 0; fill-rule: nonzero; opacity: 1;" vector-effect="non-scaling-stroke"  transform=" translate(0, 0)" d="M 249.38537 349.88537 L 249.88537 -349.88537 L -249.88537 -349.88537 L -249.88537 349.38537 L -229.92513 326.68909 L -216.71758 348.88537 L -197.84966 326.68909 L -181.81192 349.88537 L -164.83078999999998 326.68909 L -149.73645 348.88537 L -131.81192 326.68909 L -119.54776999999999 349.88537 L -101.62323999999998 326.68909 L -91.24587999999999 348.88537 L -70.49115999999998 326.68909 L -62.00058999999998 349.38537 L -44.076059999999984 326.68909 L -33.69869999999999 349.38537 L -14.830779999999987 326.68909 L -5.396819999999986 349.88537 L 10.640920000000014 326.68909 L 20.074880000000014 348.88537 L 37.056010000000015 326.68909 L 48.37676000000002 348.88537 L 61.584310000000016 326.68909 L 72.90506000000002 348.88537 L 87.05600000000003 326.68909 L 99.32015000000003 349.38537 L 112.52770000000002 326.68909 L 125.73525000000002 348.88537 L 138.94280000000003 326.68909 L 151.20695000000003 349.88537 L 164.41450000000003 326.68909 L 178.56544000000002 349.88537 L 187.05601000000001 326.68909 L 198.37676000000002 348.88537 L 211.58431000000002 326.68909 L 220.07488 349.88537 L 231.39563 326.68909 z" stroke-linecap="round" />
</g>
</svg>