<?xml version="1.0" encoding="UTF-8" standalone="no" ?>
<!DOCTYPE svg PUBLIC "-//W3C//DTD SVG 1.1//EN" "http://www.w3.org/Graphics/SVG/1.1/DTD/svg11.dtd">
<svg xmlns="http://www.w3.org/2000/svg" xmlns:xlink="http://www.w3.org/1999/xlink" version="1.1" width="370" height="300" viewBox="0 0 370 300" xml:space="preserve">
<desc>Created with Fabric.js 4.6.0</desc>
<defs>
</defs>
<g transform="matrix(-1.83 0 0 -2.22 -237.92 449.43)" id="fsMQr2BD_oV1-U1OqK2hw"  >
<path style="stroke: rgb(0,0,0); stroke-width: 1; stroke-dasharray: none; stroke-linecap: butt; stroke-dashoffset: 0; stroke-linejoin: miter; stroke-miterlimit: 4; fill: rgb(255,255,255); fill-opacity: 0; fill-rule: nonzero; opacity: 1;" vector-effect="non-scaling-stroke"  transform=" translate(0, 0)" d="M 7.0028 70.02801 L -77.1593 70.02801 L -77.1593 70.02801 C -94.87902 70.02801 -109.2437 58.15857 -109.2437 43.51687 L -109.2437 -46.98241 L -109.2437 -46.98241 C -109.2437 -59.71014 -96.75678 -70.02801 -81.35337000000001 -70.02801 L 109.24369999999999 -70.02801 z" stroke-linecap="round" />
</g>
<g transform="matrix(1 0 0 1 82.63 120.45)" id="yslMkhyXOrTp8qgZ458r-"  >
<path style="stroke: rgb(0,0,0); stroke-width: 1; stroke-dasharray: none; stroke-linecap: butt; stroke-dashoffset: 0; stroke-linejoin: miter; stroke-miterlimit: 4; fill: rgb(255,255,255); fill-opacity: 0; fill-rule: nonzero; opacity: 1;" vector-effect="non-scaling-stroke"  transform=" translate(0, 0)" d="M 0 0" stroke-linecap="round" />
</g>
<g transform="matrix(1.26 0 0 1.34 185.35 149.65)" id="W7qmVmnYSspMtRVJA0n91"  >
<path style="stroke: rgb(0,0,0); stroke-width: 0; stroke-dasharray: none; stroke-linecap: butt; stroke-dashoffset: 0; stroke-linejoin: miter; stroke-miterlimit: 4; fill: rgb(177,178,255); fill-rule: nonzero; opacity: 1;" vector-effect="non-scaling-stroke"  transform=" translate(0, 0)" d="M -146.35854 19.03266 L -146.35854 -72.04183 L -146.35854 -72.04183 C -146.35854 -93.94149 -127.49681000000001 -111.69468 -104.22970000000001 -111.69468 L 146.35854 -111.69468 C 146.35854 -111.69468 115.70719 -46.50947000000001 90.45197 7.199969999999993 C 87.30237 13.898109999999994 84.2367 20.417779999999993 81.32487 26.610269999999993 C 55.064370000000004 82.45760999999999 41.31653000000001 111.69468 41.31653000000001 111.69468 L -96.38072 111.69468 L -96.38072 111.69468 C -123.98271 111.69468 -146.35854 90.63392 -146.35854 64.65415000000002 z" stroke-linecap="round" />
</g>
</svg>